<?xml version="1.0" standalone="no"?>
<!DOCTYPE svg PUBLIC "-//W3C//DTD SVG 20010904//EN"
 "http://www.w3.org/TR/2001/REC-SVG-20010904/DTD/svg10.dtd">
<svg version="1.0" xmlns="http://www.w3.org/2000/svg"
 width="75.000000pt" height="75.000000pt" viewBox="0 0 512.000000 512.000000"
 preserveAspectRatio="xMidYMid meet">

<g transform="translate(0.000000,512.000000) scale(0.100000,-0.100000)"
fill="#000000" stroke="none">
<path d="M200 5020 c-128 -23 -200 -88 -200 -181 0 -54 27 -97 84 -133 l46
-29 0 -278 c0 -266 1 -280 20 -299 25 -25 61 -26 91 -1 l24 19 3 271 3 271
819 0 820 0 0 -81 0 -81 -62 6 c-35 4 -115 11 -178 16 -63 5 -158 15 -210 21
-207 24 -547 -17 -842 -102 l-106 -31 -12 -62 c-21 -109 -24 -470 -6 -721 29
-415 35 -474 56 -553 38 -152 107 -293 205 -424 l54 -72 0 -171 c0 -307 53
-551 179 -815 179 -376 521 -708 901 -875 75 -33 186 -75 199 -75 8 0 -8 389
-24 560 -33 359 -115 718 -214 937 l-28 61 67 12 c262 44 540 209 696 413 28
36 53 66 57 66 3 1 22 -21 42 -47 54 -74 192 -202 280 -259 100 -66 245 -130
356 -156 l87 -21 -42 -101 c-133 -318 -208 -738 -222 -1248 -6 -203 -4 -227
10 -227 25 0 185 59 282 104 435 204 787 599 944 1062 73 215 109 464 97 667
l-6 107 53 70 c163 214 241 437 241 690 0 69 0 181 0 250 3 540 0 719 -12 772
l-13 56 -72 22 c-113 34 -311 77 -442 96 -143 20 -407 24 -520 7 -44 -7 -106
-15 -137 -18 l-58 -5 0 75 0 74 728 3 727 3 55 30 c68 37 100 83 100 142 0 77
-45 132 -141 170 -42 17 -171 18 -2389 19 -1290 1 -2365 -2 -2390 -6z m2819
-663 c-42 -24 -103 -64 -135 -89 l-59 -46 -185 1 -184 0 -62 48 c-34 27 -92
67 -130 89 l-69 40 450 0 450 0 -76 -43z m-1059 -72 c161 -38 305 -115 426
-228 96 -89 157 -169 212 -276 24 -47 46 -86 48 -86 2 0 18 29 34 64 89 188
258 360 447 454 119 60 282 97 424 97 186 0 412 -75 554 -183 266 -203 406
-493 392 -811 -6 -152 -31 -250 -97 -383 -126 -255 -342 -432 -625 -509 -100
-27 -360 -27 -460 0 -172 46 -320 131 -440 251 -83 83 -124 139 -186 258 l-45
87 -30 -62 c-135 -286 -379 -479 -687 -544 -78 -16 -254 -18 -343 -4 -211 34
-434 163 -573 332 -75 91 -151 235 -187 353 -25 81 -27 106 -28 250 -1 138 2
172 22 244 46 169 132 319 249 433 153 151 283 222 493 269 104 23 286 20 400
-6z"/>
<path d="M1568 3736 c-320 -92 -388 -528 -111 -712 71 -47 131 -65 219 -65
203 -2 363 132 395 332 29 178 -76 367 -239 430 -71 27 -197 34 -264 15z"/>
<path d="M3495 3737 c-135 -45 -227 -136 -270 -266 -28 -85 -18 -210 23 -293
146 -298 581 -292 720 10 35 76 43 205 17 283 -38 114 -110 195 -222 246 -69
32 -201 42 -268 20z"/>
<path d="M1447 546 c-92 -33 -156 -112 -164 -203 -4 -50 -1 -65 24 -112 56
-107 167 -150 359 -138 114 7 180 33 233 94 108 122 54 303 -108 358 -58 20
-289 20 -344 1z"/>
<path d="M3384 550 c-57 -18 -127 -73 -151 -119 -45 -86 -23 -205 48 -265 59
-50 113 -68 223 -73 176 -9 277 25 340 115 25 35 31 55 34 110 3 61 1 72 -30
121 -24 40 -47 62 -88 85 -54 30 -58 31 -200 33 -80 1 -159 -2 -176 -7z"/>
</g>
</svg>
